<svg width="1080" height="1080" viewBox="0 0 1080 1080" fill="none" xmlns="http://www.w3.org/2000/svg">
<rect x="314" y="138" width="50" height="560" rx="25" fill="black"/>
<rect x="664" y="594" width="110" height="380" rx="55" transform="rotate(90 664 594)" fill="black"/>
<path d="M336 632.443C337.547 631.55 339.453 631.55 341 632.443L351.155 638.306C352.702 639.2 353.655 640.85 353.655 642.637V654.363C353.655 656.149 352.702 657.8 351.155 658.693L341 664.556C339.453 665.45 337.547 665.45 336 664.556L325.845 658.693C324.298 657.8 323.345 656.149 323.345 654.363V642.637C323.345 640.85 324.298 639.2 325.845 638.306L336 632.443Z" fill="black"/>
<path d="M337 639.866C337.928 639.33 339.072 639.33 340 639.866L345.227 642.884C346.155 643.42 346.727 644.41 346.727 645.482V651.518C346.727 652.59 346.155 653.58 345.227 654.116L340 657.134C339.072 657.67 337.928 657.67 337 657.134L331.773 654.116C330.845 653.58 330.273 652.59 330.273 651.518V645.482C330.273 644.41 330.845 643.42 331.773 642.884L337 639.866Z" fill="#404040"/>
<rect x="502.691" y="348" width="50" height="560" rx="25" fill="#404040"/>
<rect width="50" height="373" rx="25" transform="matrix(-5.23985e-08 -1 -1 3.64645e-08 845.691 663)" fill="#BEBEBE"/>
<rect x="472.691" y="582" width="110" height="326" rx="55" fill="#999999"/>
<rect x="451" y="645.705" width="110" height="456.564" rx="55" transform="rotate(-51.4706 451 645.705)" fill="black" fill-opacity="0.3"/>
<path d="M742.691 403C742.691 372.624 767.315 348 797.691 348V348C828.067 348 852.691 372.624 852.691 403L852.691 629C852.691 659.376 828.067 684 797.691 684V684C767.315 684 742.691 659.376 742.691 629L742.691 403Z" fill="black" fill-opacity="0.3"/>
<rect x="852.691" y="348" width="110" height="380" rx="55" transform="rotate(90 852.691 348)" fill="black" fill-opacity="0.3"/>
<path d="M524.691 387.443C526.238 386.55 528.144 386.55 529.691 387.443L539.846 393.307C541.393 394.2 542.346 395.85 542.346 397.637V409.363C542.346 411.15 541.393 412.8 539.846 413.693L529.691 419.557C528.144 420.45 526.238 420.45 524.691 419.557L514.535 413.693C512.988 412.8 512.035 411.15 512.035 409.363V397.637C512.035 395.85 512.988 394.2 514.535 393.307L524.691 387.443Z" fill="black"/>
<path d="M794.691 387.443C796.238 386.55 798.144 386.55 799.691 387.443L809.846 393.307C811.393 394.2 812.346 395.85 812.346 397.637V409.363C812.346 411.15 811.393 412.8 809.846 413.693L799.691 419.557C798.144 420.45 796.238 420.45 794.691 419.557L784.535 413.693C782.988 412.8 782.035 411.15 782.035 409.363V397.637C782.035 395.85 782.988 394.2 784.535 393.307L794.691 387.443Z" fill="black"/>
<path d="M525.691 394.866C526.619 394.33 527.763 394.33 528.691 394.866L533.918 397.884C534.846 398.42 535.418 399.41 535.418 400.482V406.518C535.418 407.59 534.846 408.58 533.918 409.116L528.691 412.134C527.763 412.67 526.619 412.67 525.691 412.134L520.464 409.116C519.535 408.58 518.964 407.59 518.964 406.518V400.482C518.964 399.41 519.535 398.42 520.464 397.884L525.691 394.866Z" fill="#404040"/>
<path d="M795.691 394.866C796.619 394.33 797.763 394.33 798.691 394.866L803.918 397.884C804.846 398.42 805.418 399.41 805.418 400.482V406.518C805.418 407.59 804.846 408.58 803.918 409.116L798.691 412.134C797.763 412.67 796.619 412.67 795.691 412.134L790.464 409.116C789.535 408.58 788.964 407.59 788.964 406.518V400.482C788.964 399.41 789.535 398.42 790.464 397.884L795.691 394.866Z" fill="#404040"/>
<path d="M524.691 621.443C526.238 620.55 528.144 620.55 529.691 621.443L539.846 627.307C541.393 628.2 542.346 629.85 542.346 631.637V643.363C542.346 645.15 541.393 646.8 539.846 647.693L529.691 653.557C528.144 654.45 526.238 654.45 524.691 653.557L514.535 647.693C512.988 646.8 512.035 645.15 512.035 643.363V631.637C512.035 629.85 512.988 628.2 514.535 627.307L524.691 621.443Z" fill="black"/>
<path d="M794.691 621.443C796.238 620.55 798.144 620.55 799.691 621.443L809.846 627.307C811.393 628.2 812.346 629.85 812.346 631.637V643.363C812.346 645.15 811.393 646.8 809.846 647.693L799.691 653.557C798.144 654.45 796.238 654.45 794.691 653.557L784.535 647.693C782.988 646.8 782.035 645.15 782.035 643.363V631.637C782.035 629.85 782.988 628.2 784.535 627.307L794.691 621.443Z" fill="black"/>
<path d="M525.691 628.866C526.619 628.33 527.763 628.33 528.691 628.866L533.918 631.884C534.846 632.42 535.418 633.41 535.418 634.482V640.518C535.418 641.59 534.846 642.58 533.918 643.116L528.691 646.134C527.763 646.67 526.619 646.67 525.691 646.134L520.464 643.116C519.535 642.58 518.964 641.59 518.964 640.518V634.482C518.964 633.41 519.535 632.42 520.464 631.884L525.691 628.866Z" fill="#404040"/>
<path d="M795.691 628.866C796.619 628.33 797.763 628.33 798.691 628.866L803.918 631.884C804.846 632.42 805.418 633.41 805.418 634.482V640.518C805.418 641.59 804.846 642.58 803.918 643.116L798.691 646.134C797.763 646.67 796.619 646.67 795.691 646.134L790.464 643.116C789.535 642.58 788.964 641.59 788.964 640.518V634.482C788.964 633.41 789.535 632.42 790.464 631.884L795.691 628.866Z" fill="#404040"/>
</svg>
